<svg xmlns="http://www.w3.org/2000/svg" width="512" height="512" viewBox="0 0 512 512">
  <defs>
    <linearGradient id="bg" x1="0" y1="0" x2="512" y2="512" gradientUnits="userSpaceOnUse">
      <stop offset="0" stop-color="#1a1a2e"/>
      <stop offset="1" stop-color="#0d0d15"/>
    </linearGradient>
  </defs>
  <rect width="512" height="512" rx="108" fill="url(#bg)"/>

  <!-- Divider line between panels -->
  <line x1="256" y1="110" x2="256" y2="402" stroke="#FFFFFF" stroke-opacity="0.12" stroke-width="2"/>

  <!-- Left panel (Personal) -->
  <!-- Panel label -->
  <rect x="90" y="120" width="70" height="14" rx="7" fill="#FF6B35" opacity="0.7"/>

  <!-- App lines -->
  <circle cx="105" cy="178" r="10" fill="#FF6B35" opacity="0.5"/>
  <rect x="125" y="170" width="100" height="16" rx="8" fill="#FFFFFF" opacity="0.7"/>

  <circle cx="105" cy="224" r="10" fill="#FF6B35" opacity="0.35"/>
  <rect x="125" y="216" width="80" height="16" rx="8" fill="#FFFFFF" opacity="0.45"/>

  <circle cx="105" cy="270" r="10" fill="#FF6B35" opacity="0.25"/>
  <rect x="125" y="262" width="95" height="16" rx="8" fill="#FFFFFF" opacity="0.3"/>

  <circle cx="105" cy="316" r="10" fill="#FF6B35" opacity="0.15"/>
  <rect x="125" y="308" width="65" height="16" rx="8" fill="#FFFFFF" opacity="0.2"/>

  <!-- Right panel (Work) -->
  <!-- Panel label -->
  <rect x="290" y="120" width="55" height="14" rx="7" fill="#E63946" opacity="0.7"/>

  <!-- App lines -->
  <circle cx="305" cy="178" r="10" fill="#E63946" opacity="0.5"/>
  <rect x="325" y="170" width="85" height="16" rx="8" fill="#FFFFFF" opacity="0.7"/>

  <circle cx="305" cy="224" r="10" fill="#E63946" opacity="0.35"/>
  <rect x="325" y="216" width="105" height="16" rx="8" fill="#FFFFFF" opacity="0.45"/>

  <circle cx="305" cy="270" r="10" fill="#E63946" opacity="0.25"/>
  <rect x="325" y="262" width="70" height="16" rx="8" fill="#FFFFFF" opacity="0.3"/>

  <circle cx="305" cy="316" r="10" fill="#E63946" opacity="0.15"/>
  <rect x="325" y="308" width="90" height="16" rx="8" fill="#FFFFFF" opacity="0.2"/>

  <!-- Bottom dots indicating panels -->
  <circle cx="236" cy="385" r="8" fill="#FF6B35" opacity="0.9"/>
  <circle cx="268" cy="385" r="6" fill="#FFFFFF" opacity="0.3"/>
</svg>
